<?xml version="1.0" standalone="no"?>
<!DOCTYPE svg PUBLIC "-//W3C//DTD SVG 20010904//EN"
 "http://www.w3.org/TR/2001/REC-SVG-20010904/DTD/svg10.dtd">
<svg version="1.0" xmlns="http://www.w3.org/2000/svg"
 width="900.000000pt" height="900.000000pt" viewBox="0 0 900.000000 900.000000"
 preserveAspectRatio="xMidYMid meet">
<metadata>
Created by potrace 1.10, written by Peter Selinger 2001-2011
</metadata>
<g transform="translate(0.000000,900.000000) scale(0.100000,-0.100000)"
fill="#000000" stroke="none">
<path d="M4134 7105 c-10 -25 22 -84 52 -95 21 -9 25 -15 20 -38 -4 -15 -7
-50 -7 -78 -1 -42 -7 -57 -31 -83 -46 -50 -97 -42 -168 26 -40 37 -70 43 -70
14 0 -11 5 -23 10 -26 6 -3 10 -15 10 -26 0 -28 38 -76 78 -99 25 -15 51 -20
106 -20 66 0 76 3 120 34 72 51 86 77 86 166 0 59 -5 83 -23 114 -45 80 -167
153 -183 111z"/>
<path d="M5478 7083 c-8 -17 -23 -29 -38 -31 -36 -5 -44 -17 -30 -43 32 -62
103 -79 139 -33 25 32 27 76 5 109 -22 34 -59 33 -76 -2z"/>
<path d="M4606 7045 c-9 -14 -39 -36 -66 -50 -56 -29 -63 -50 -31 -99 60 -90
186 -65 207 41 6 31 -15 92 -39 111 -30 24 -54 23 -71 -3z"/>
<path d="M5152 7041 c-10 -27 -14 -29 -46 -24 -34 5 -36 4 -36 -23 2 -112 169
-105 170 7 0 66 -68 97 -88 40z"/>
<path d="M4052 7023 c-48 -6 -65 -37 -48 -87 17 -48 67 -96 100 -96 15 0 26 2
26 5 0 2 -19 22 -42 44 l-43 39 14 39 c8 21 21 43 30 50 9 7 12 12 6 11 -5 -1
-25 -3 -43 -5z"/>
<path d="M4840 7017 c-15 -8 -24 -21 -23 -32 1 -11 -3 -27 -7 -36 -7 -12 -3
-24 16 -44 20 -21 30 -26 52 -20 43 11 62 34 62 76 0 59 -46 84 -100 56z"/>
<path d="M6200 7020 c0 -5 -23 -10 -50 -10 -65 0 -131 -33 -187 -94 -37 -39
-43 -52 -43 -89 0 -46 35 -111 82 -155 57 -52 148 -34 148 29 0 25 -6 32 -37
45 -59 25 -83 52 -83 95 0 28 6 42 26 58 39 31 62 34 110 16 51 -19 84 -65 83
-116 0 -19 0 -44 1 -57 0 -13 -11 -47 -25 -76 -31 -66 -31 -70 1 -91 24 -15
27 -15 51 0 14 9 36 41 50 71 49 108 31 246 -41 314 -15 14 -37 35 -50 48 -25
24 -36 28 -36 12z"/>
<path d="M3580 6980 c0 -49 -30 -74 -78 -64 -27 6 -32 4 -32 -13 0 -49 179
-193 239 -193 11 0 39 18 62 40 37 35 41 43 35 72 -8 38 -88 125 -155 169 -61
39 -71 38 -71 -11z"/>
<path d="M5717 6863 c-4 -3 -7 -18 -7 -33 0 -31 -28 -60 -57 -60 -61 0 -69
-33 -20 -85 20 -21 45 -36 68 -40 31 -6 41 -2 74 26 36 32 37 35 33 88 -4 47
-10 59 -39 83 -35 29 -42 32 -52 21z"/>
<path d="M5288 6813 c-22 -51 -55 -86 -72 -80 -64 24 -76 9 -49 -62 30 -79 74
-111 153 -111 48 0 59 4 91 33 53 49 67 94 48 154 -11 35 -26 56 -58 80 -62
48 -87 44 -113 -14z"/>
<path d="M4980 6804 c0 -9 -9 -18 -19 -21 -51 -13 -23 -83 33 -83 37 0 46 12
46 60 0 28 -11 42 -42 53 -12 4 -18 1 -18 -9z"/>
<path d="M6526 6747 c-9 -13 -27 -29 -41 -35 -48 -22 -20 -92 37 -92 13 0 35
11 47 24 29 31 26 92 -6 113 -20 13 -23 12 -37 -10z"/>
<path d="M3339 6722 c-9 -9 -54 -46 -100 -81 -108 -82 -247 -246 -249 -291 0
-8 -7 -28 -15 -43 -8 -16 -20 -69 -26 -119 -14 -121 -1 -181 66 -283 11 -16
22 -32 26 -35 3 -3 11 -15 18 -28 10 -18 10 -27 0 -38 -19 -23 -37 -17 -75 26
-20 22 -44 40 -53 40 -9 0 -22 5 -28 11 -11 11 -39 19 -143 39 -69 14 -203 12
-283 -4 -40 -8 -93 -17 -118 -21 -26 -3 -54 -14 -63 -24 -18 -20 -21 -17 93
-119 36 -31 76 -69 90 -83 68 -68 261 -145 421 -168 88 -13 347 -12 373 1 24
12 21 44 -13 148 -26 79 -30 105 -30 202 0 117 4 136 66 329 42 129 60 228 68
374 4 61 9 127 12 148 6 41 -8 49 -37 19z m-59 -176 c0 -8 -5 -18 -10 -21 -8
-5 -7 -11 1 -21 9 -11 9 -23 -1 -54 -7 -22 -11 -43 -8 -46 3 -3 -3 -27 -13
-55 -11 -27 -19 -60 -19 -74 0 -14 -4 -33 -9 -43 -30 -60 -40 -101 -46 -201
-4 -61 -11 -113 -15 -116 -10 -6 -20 99 -20 213 0 91 24 217 50 264 16 28 12
78 -5 78 -10 0 -15 -10 -15 -30 0 -18 -6 -33 -15 -36 -8 -4 -15 -16 -15 -28 0
-11 -7 -34 -15 -50 -8 -15 -15 -42 -15 -58 0 -17 -7 -58 -16 -92 -12 -45 -15
-83 -10 -143 4 -52 2 -83 -4 -83 -37 0 -67 199 -45 302 27 131 134 292 200
301 17 2 33 5 38 6 4 0 7 -5 7 -13z m-180 -639 c0 -18 -2 -19 -10 -7 -13 20
-13 43 0 35 6 -3 10 -16 10 -28z m-362 -53 c26 -7 59 -14 74 -14 15 0 29 -4
32 -9 3 -4 27 -14 53 -21 96 -25 139 -44 176 -79 20 -19 37 -39 37 -45 0 -5 6
-17 14 -25 8 -9 17 -31 21 -48 5 -26 3 -33 -9 -33 -15 0 -80 33 -156 78 -19
12 -57 33 -85 47 -27 14 -57 30 -65 34 -8 5 -33 17 -55 26 -22 10 -53 24 -68
31 -16 8 -33 14 -39 14 -5 0 -24 6 -41 14 -52 23 -77 26 -77 10 0 -8 10 -19
23 -24 12 -6 29 -14 37 -19 8 -4 31 -15 50 -24 210 -92 369 -182 353 -198 -9
-9 -147 19 -223 46 -73 26 -107 35 -127 35 -12 0 -35 14 -51 30 -17 17 -40 30
-51 30 -11 0 -25 9 -31 20 -6 11 -29 28 -51 36 -29 12 -39 22 -39 38 0 25 35
46 76 46 13 0 27 7 31 16 5 14 17 15 75 9 38 -3 90 -13 116 -21z m394 -84 c2
-22 0 -40 -4 -40 -9 0 -27 62 -21 73 10 18 21 4 25 -33z"/>
<path d="M4570 6608 c-181 -23 -196 -28 -345 -106 -42 -22 -167 -148 -208
-209 -41 -62 -81 -144 -108 -222 -15 -42 -21 -97 -26 -214 -9 -234 13 -366 88
-523 56 -118 159 -268 192 -279 25 -9 157 79 157 105 0 11 -20 41 -45 66 -56
59 -102 136 -142 239 -63 160 -68 185 -67 375 l0 175 38 79 c42 87 105 175
163 227 56 51 178 111 222 110 20 -1 47 -1 61 0 132 8 176 3 240 -29 77 -37
150 -103 204 -187 57 -88 75 -105 111 -105 23 0 42 10 68 37 50 49 50 94 3
172 -113 184 -391 317 -606 289z"/>
<path d="M3712 6539 c-77 -30 -210 -242 -248 -395 -35 -144 -35 -364 0 -468
40 -116 129 -216 193 -216 42 0 103 54 103 91 0 13 -24 60 -53 104 -63 96 -87
177 -87 297 0 80 25 212 48 253 6 11 20 41 32 68 12 26 30 51 39 56 9 5 23 22
31 38 8 15 27 40 42 55 30 28 34 48 17 95 -9 27 -14 31 -52 31 -23 0 -52 -4
-65 -9z"/>
<path d="M5809 6486 c-30 -8 -53 -9 -67 -3 -17 8 -28 4 -52 -17 -17 -14 -41
-26 -51 -26 -11 0 -27 -7 -35 -15 -12 -11 -20 -12 -35 -5 -15 9 -19 7 -19 -6
0 -15 -146 -164 -161 -164 -4 0 -10 -11 -13 -24 -3 -14 -22 -45 -41 -70 -19
-26 -35 -50 -35 -55 0 -5 -7 -14 -16 -22 -8 -7 -13 -21 -11 -31 3 -11 -3 -24
-15 -32 -14 -10 -18 -21 -13 -35 4 -14 0 -23 -13 -30 -14 -7 -18 -18 -14 -39
2 -16 -1 -33 -7 -36 -6 -4 -11 -18 -11 -31 0 -14 -9 -29 -20 -35 -11 -6 -20
-20 -20 -31 0 -11 -7 -22 -15 -25 -8 -4 -15 -13 -15 -20 0 -8 -18 -43 -40 -76
-22 -34 -40 -67 -40 -74 0 -15 23 -24 65 -24 31 0 36 5 71 68 49 86 106 206
123 257 8 22 29 73 47 113 19 40 34 77 34 82 0 14 88 142 108 158 23 18 42 15
42 -7 0 -10 18 -36 40 -57 44 -42 46 -63 12 -114 -31 -46 -82 -151 -82 -168 0
-9 -7 -26 -15 -36 -8 -11 -15 -28 -15 -37 0 -10 -6 -30 -14 -46 -8 -15 -29
-59 -48 -98 -32 -67 -41 -82 -82 -124 -23 -25 -15 -47 21 -63 15 -7 46 -24 68
-37 69 -44 79 -50 105 -61 13 -6 27 -15 30 -19 8 -11 192 -100 223 -107 15 -3
30 -10 33 -15 3 -5 21 -9 40 -9 19 0 47 -6 62 -14 15 -7 56 -16 92 -20 162
-18 165 -18 163 -49 -1 -15 -15 -46 -30 -70 -26 -38 -33 -42 -68 -41 -62 2
-146 14 -195 29 -25 8 -78 24 -119 36 -41 13 -131 51 -200 86 -69 35 -163 80
-209 100 -45 20 -94 44 -107 55 -14 11 -25 15 -25 9 0 -5 -8 -12 -17 -15 -10
-3 -29 -22 -42 -41 -13 -19 -33 -45 -45 -57 -12 -13 -39 -45 -61 -73 -22 -27
-75 -84 -117 -127 -43 -42 -78 -79 -78 -83 0 -14 65 -102 109 -148 79 -82 184
-120 269 -96 90 25 182 112 182 173 0 31 -28 86 -45 86 -22 0 -35 -26 -29 -58
6 -28 3 -32 -30 -46 -63 -26 -104 0 -148 98 -34 72 -19 140 41 184 23 17 44
22 91 22 53 0 69 -5 116 -35 36 -23 66 -54 91 -92 34 -53 36 -63 42 -162 6
-94 8 -102 17 -71 13 44 28 45 32 1 3 -30 -10 -69 -39 -121 -5 -8 -13 -24 -18
-35 -12 -26 -67 -85 -79 -85 -6 0 -12 -7 -16 -15 -3 -8 -14 -15 -24 -15 -11 0
-25 -7 -32 -15 -25 -30 -202 -11 -310 33 -14 6 -32 13 -40 16 -8 4 -28 15 -45
26 -16 11 -41 24 -54 30 -36 16 -155 140 -174 183 -10 20 -25 37 -33 37 -8 0
-30 -15 -48 -34 -35 -35 -151 -126 -160 -126 -3 0 -25 -13 -49 -30 -25 -16
-52 -30 -61 -30 -9 0 -19 -7 -23 -16 -3 -9 -15 -20 -27 -24 -21 -9 -21 -9 0
-9 36 -1 82 -60 86 -109 3 -38 7 -46 38 -62 38 -20 154 -73 280 -127 19 -8 42
-19 50 -24 8 -5 22 -12 30 -15 8 -3 28 -12 43 -20 16 -7 38 -14 50 -14 12 0
31 -7 41 -15 11 -8 29 -15 40 -15 12 0 30 -7 40 -15 11 -8 31 -15 44 -15 13 0
33 -5 44 -11 12 -6 55 -16 96 -21 117 -14 139 -34 79 -75 -17 -13 -44 -32 -59
-44 -25 -20 -30 -21 -95 -10 -37 7 -88 19 -113 27 -25 8 -58 14 -75 14 -16 1
-39 7 -49 15 -11 8 -28 15 -38 15 -10 0 -48 14 -85 31 -100 45 -105 47 -145
54 -20 3 -38 10 -40 16 -2 6 -24 13 -48 15 -25 3 -62 12 -82 21 -48 20 -70 12
-66 -24 l3 -28 75 3 c55 3 91 -1 133 -16 55 -18 97 -46 97 -64 0 -14 -57 -9
-70 7 -7 8 -24 15 -39 15 -14 1 -37 7 -51 15 -30 17 -140 20 -140 4 0 -6 11
-24 25 -41 21 -25 25 -40 25 -93 0 -43 -5 -66 -15 -75 -8 -7 -15 -20 -15 -30
0 -10 -7 -23 -15 -30 -8 -7 -15 -17 -15 -23 0 -13 -102 -116 -115 -117 -6 0
-16 -5 -23 -12 -15 -15 -96 -37 -137 -37 -16 -1 -43 8 -60 19 -16 11 -38 20
-48 20 -30 0 -139 50 -193 89 -50 35 -123 122 -160 192 -14 26 -18 57 -19 125
0 90 0 91 43 155 54 80 43 86 -71 32 -89 -43 -133 -60 -186 -73 -18 -5 -38
-13 -44 -19 -6 -6 -21 -11 -33 -11 -11 0 -52 -12 -90 -26 -38 -14 -81 -29 -95
-34 -14 -4 -34 -12 -45 -17 -10 -6 -37 -18 -59 -29 -22 -10 -59 -33 -83 -51
-44 -32 -112 -113 -112 -132 0 -22 -37 -31 -71 -17 -35 15 -69 11 -69 -9 0 -7
18 -24 40 -39 35 -23 40 -31 40 -64 -1 -108 -142 -146 -190 -52 -11 22 -20 52
-20 68 0 38 30 125 47 135 7 4 13 15 13 23 0 45 129 185 200 217 8 4 29 16 45
27 17 11 37 22 45 26 8 3 29 11 45 18 40 17 93 36 130 46 17 5 46 14 65 20 84
28 97 32 130 40 47 11 211 68 232 80 10 6 24 10 31 10 16 0 178 69 192 81 5 5
16 9 24 9 14 0 125 49 161 71 8 5 22 12 30 15 50 19 230 116 288 155 24 16 45
29 48 29 10 0 214 158 269 208 l56 52 -7 47 c-12 85 -42 97 -68 29 -10 -26
-33 -57 -59 -79 -53 -44 -205 -157 -212 -157 -3 0 -27 -15 -53 -33 -26 -18
-60 -39 -77 -47 -16 -8 -45 -25 -63 -37 -18 -12 -85 -47 -150 -78 -212 -104
-250 -120 -357 -157 -33 -11 -64 -24 -70 -28 -5 -4 -57 -21 -115 -39 -58 -18
-121 -39 -140 -46 -19 -8 -69 -24 -110 -36 -41 -12 -79 -25 -84 -30 -6 -5 -16
-9 -24 -9 -8 0 -28 -6 -45 -14 -18 -7 -52 -21 -77 -31 -25 -9 -52 -21 -60 -26
-8 -5 -22 -12 -30 -15 -14 -5 -24 -10 -75 -38 -44 -24 -129 -102 -166 -153
-119 -161 -161 -404 -100 -577 34 -97 75 -174 94 -179 9 -3 17 -12 17 -21 0
-9 7 -16 16 -16 11 0 14 -6 9 -21 -6 -18 -4 -20 15 -14 19 6 21 4 16 -17 -3
-12 -3 -17 0 -10 9 20 28 14 54 -18 14 -16 31 -29 38 -30 7 0 15 -7 18 -15 3
-8 15 -17 25 -20 14 -5 18 -12 14 -26 -6 -18 -5 -19 13 -8 29 18 55 5 47 -23
-6 -19 -5 -21 6 -10 18 17 54 15 73 -3 8 -8 24 -15 34 -15 30 0 52 -10 52 -24
0 -17 442 -15 463 2 8 7 36 15 63 18 27 4 54 11 61 16 7 6 34 10 60 10 89 -1
103 5 103 44 0 19 -7 51 -15 71 -8 19 -15 44 -15 54 0 10 -6 33 -14 51 -8 18
-22 53 -31 78 -46 122 -72 176 -114 233 -40 54 -70 61 -95 22 l-17 -25 41 6
42 7 -26 -28 c-24 -26 -29 -27 -98 -23 -74 3 -98 14 -166 73 -34 28 -62 88
-62 130 0 29 8 44 45 80 l44 45 77 0 c66 0 84 -4 133 -30 77 -41 148 -105 209
-187 55 -76 122 -197 122 -223 0 -9 7 -25 15 -36 8 -10 15 -29 15 -40 0 -12 6
-37 14 -55 7 -19 17 -61 21 -93 11 -96 17 -101 80 -66 20 11 64 31 98 46 34
14 76 31 92 38 17 8 41 18 55 24 51 20 411 201 420 212 3 3 16 11 30 18 14 7
59 35 100 62 41 28 82 53 90 57 8 4 17 9 20 13 3 3 23 17 45 30 22 13 45 28
50 32 36 30 177 128 183 128 4 0 20 14 36 30 16 17 33 30 37 30 26 0 499 472
567 565 4 6 24 31 45 57 20 25 37 51 37 57 0 6 5 11 10 11 6 0 10 7 10 15 0 9
7 18 15 21 8 4 15 11 15 16 0 5 20 36 45 68 25 32 45 65 45 74 0 8 6 19 13 23
14 9 32 37 47 71 5 12 14 22 19 22 5 0 12 11 15 25 4 14 11 25 16 25 6 0 10 9
10 19 0 11 5 23 11 26 5 4 15 17 20 28 5 12 20 41 33 64 13 22 26 53 30 67 3
14 11 26 16 26 6 0 10 9 10 19 0 11 7 26 15 35 8 8 15 26 15 39 0 14 7 30 15
37 8 7 15 23 15 36 0 12 7 29 15 38 8 8 15 27 15 43 0 16 6 37 14 48 7 11 16
44 19 74 4 29 11 58 16 65 6 7 13 89 17 184 7 176 7 174 -33 300 -52 166 -199
318 -368 382 -33 12 -78 24 -100 26 -22 2 -58 5 -80 7 -22 3 -61 -1 -86 -7z
m6 -102 c21 -5 55 -55 55 -79 0 -43 -73 -105 -124 -105 -10 0 -29 -9 -43 -20
-41 -32 -60 -26 -89 33 -15 28 -30 54 -35 55 -18 7 -9 48 14 62 81 53 158 72
222 54z m245 -29 c25 -9 49 -21 55 -26 5 -5 22 -9 37 -9 15 0 28 -3 28 -6 0
-3 -20 -29 -45 -56 -36 -40 -45 -58 -45 -86 0 -39 16 -34 22 6 2 17 13 28 40
37 36 12 37 11 72 -26 20 -20 36 -42 36 -47 0 -5 7 -15 15 -22 8 -7 15 -23 15
-36 0 -19 -5 -24 -25 -24 -19 0 -23 -4 -18 -17 3 -10 12 -25 20 -34 7 -9 20
-42 29 -75 17 -67 15 -240 -5 -334 -12 -58 -7 -105 9 -95 6 3 10 25 10 48 0
23 7 54 15 70 10 19 15 76 19 190 4 146 3 166 -15 207 -20 45 -18 105 4 97 13
-4 35 -63 53 -142 30 -135 5 -463 -41 -529 -8 -11 -15 -31 -15 -43 0 -13 -4
-31 -10 -41 -5 -9 -21 -43 -35 -75 -15 -31 -36 -62 -47 -68 -19 -10 -19 -8
-17 45 1 31 0 58 -3 62 -10 9 -48 -15 -48 -31 0 -22 -31 -18 -37 5 -6 22 -34
26 -62 8 -35 -21 -146 17 -214 74 -32 26 -66 48 -75 48 -10 0 -23 9 -29 20 -7
10 -32 25 -55 31 -24 7 -48 16 -53 20 -6 4 -43 15 -82 24 -87 20 -101 33 -85
79 7 18 12 39 12 47 0 15 30 79 48 102 12 17 50 116 57 152 3 17 26 61 50 99
25 37 45 73 45 79 1 7 26 25 58 40 94 45 107 54 141 97 31 38 61 98 61 120 0
5 -9 10 -20 10 -25 0 -27 27 -2 32 22 5 75 -6 132 -27z m255 -182 c5 -17 2
-23 -9 -23 -10 0 -16 9 -16 25 0 14 -4 25 -10 25 -5 0 -10 8 -10 17 0 16 2 15
19 -2 10 -11 22 -30 26 -42z m-690 -708 c67 -31 121 -57 140 -68 30 -18 105
-94 105 -106 0 -16 -26 -13 -40 4 -7 8 -23 15 -35 15 -12 0 -28 7 -35 15 -7 8
-21 15 -32 15 -11 0 -26 7 -34 15 -9 8 -24 15 -35 15 -11 0 -22 7 -25 15 -4 8
-16 15 -29 15 -13 0 -25 7 -29 15 -3 8 -14 15 -24 15 -11 0 -25 7 -32 15 -7 8
-19 15 -26 15 -8 0 -14 6 -14 14 0 12 12 13 58 9 31 -2 71 -11 87 -18z m137
-439 c54 -22 130 -45 176 -52 52 -8 62 -21 28 -34 -29 -11 -31 -20 -13 -72
l13 -38 45 60 c50 68 86 81 75 29 -5 -28 -44 -89 -203 -321 -66 -96 -173 -219
-327 -376 -96 -99 -146 -124 -146 -72 0 20 -19 30 -55 30 -12 0 -28 7 -35 15
-7 8 -18 15 -25 15 -8 0 -15 5 -17 12 -2 6 -20 12 -39 14 -90 6 -226 62 -273
113 -17 17 -34 31 -39 31 -4 0 -25 16 -45 35 -34 33 -71 53 -269 145 -40 19
-73 37 -73 40 0 11 34 37 57 44 12 4 25 16 28 27 4 10 13 19 21 19 8 0 22 9
31 20 10 11 23 20 30 20 7 0 45 -30 85 -66 40 -36 89 -72 108 -81 19 -8 47
-28 62 -44 17 -18 37 -29 54 -29 25 0 26 -1 11 -18 -15 -16 -14 -20 18 -45 19
-15 41 -27 49 -27 8 0 17 -4 20 -9 7 -11 76 -22 161 -26 58 -3 79 1 120 21 66
32 167 105 180 129 19 36 68 105 74 105 4 0 15 14 25 32 15 25 19 53 20 152
l1 121 62 0 c66 0 91 10 50 20 -14 4 -28 13 -31 21 -3 8 -16 14 -30 14 -21 0
-56 22 -56 36 0 9 41 3 72 -10z m-702 -26 c11 -11 22 -32 26 -47 3 -16 18 -38
32 -50 35 -29 19 -48 -32 -39 -64 12 -115 98 -81 136 23 25 30 25 55 0z m599
-48 c12 -23 5 -202 -9 -216 -7 -7 -10 9 -10 51 0 33 -3 88 -6 122 -7 62 4 81
25 43z m-26 -269 c-3 -7 -9 -13 -14 -13 -11 0 -12 34 -2 43 9 10 22 -13 16
-30z m-93 -113 c0 -21 -71 -77 -145 -114 -78 -39 -79 -39 -144 -29 -82 14
-163 42 -155 55 4 6 20 7 38 3 158 -34 228 -24 341 50 17 11 34 25 38 32 9 15
27 17 27 3z m-965 -41 c28 -8 56 -19 63 -26 7 -7 22 -13 32 -13 10 0 21 -4 25
-9 3 -5 19 -12 35 -16 17 -4 30 -10 30 -15 0 -4 18 -18 41 -29 67 -35 126 -84
143 -118 15 -31 15 -33 -4 -33 -10 0 -22 5 -25 10 -3 6 -15 10 -26 10 -11 0
-22 7 -25 15 -4 8 -16 15 -29 15 -12 0 -28 7 -35 15 -7 8 -20 15 -30 15 -10 0
-23 7 -30 15 -7 8 -20 15 -29 15 -9 0 -25 7 -35 15 -11 8 -27 15 -37 15 -9 0
-22 7 -29 15 -7 8 -20 15 -30 15 -10 0 -23 7 -30 15 -7 8 -21 15 -31 15 -12 0
-23 10 -29 25 -5 14 -14 25 -20 25 -17 0 -11 18 8 23 19 6 27 5 97 -14z
m-1017 -367 c2 -7 -3 -12 -12 -12 -22 0 -20 -17 4 -47 41 -52 16 -64 -89 -44
-29 6 -58 5 -84 -3 -70 -20 -55 -33 45 -39 98 -6 131 -18 207 -74 43 -32 86
-81 78 -89 -2 -3 -52 18 -109 46 -57 27 -117 50 -132 50 -36 0 -148 29 -161
41 -18 18 -27 8 -21 -24 5 -29 1 -37 -34 -72 -44 -43 -73 -116 -63 -157 4 -13
24 -50 45 -82 21 -33 38 -65 38 -72 0 -17 37 -38 107 -59 47 -13 80 -17 138
-12 41 3 75 2 75 -2 0 -4 -9 -16 -19 -25 -26 -24 -182 -25 -226 -2 -16 9 -36
16 -42 16 -23 0 -109 59 -146 101 -21 23 -41 39 -44 35 -7 -6 28 -76 37 -76 4
0 28 -20 53 -45 26 -25 53 -45 60 -45 6 0 26 -8 42 -17 36 -20 125 -35 221
-37 44 0 77 -6 88 -15 36 -30 58 -127 40 -176 -8 -21 -56 -45 -91 -45 -16 0
-44 -8 -63 -19 -35 -18 -63 -19 -396 -11 -26 0 -77 35 -63 43 2 1 13 7 23 13
11 6 21 15 23 21 6 18 -28 24 -51 10 -13 -8 -39 -12 -69 -9 -41 3 -50 8 -63
34 -12 23 -13 33 -4 42 8 8 14 7 21 -6 6 -10 14 -18 19 -18 21 0 8 24 -34 64
-52 51 -66 75 -66 113 0 51 -16 60 -35 19 -18 -37 -18 -37 7 -64 14 -15 28
-35 32 -45 3 -11 15 -21 26 -24 11 -3 20 -12 20 -19 0 -11 -10 -13 -35 -11
-38 5 -65 22 -65 42 0 7 -7 18 -15 25 -9 7 -13 20 -10 29 4 12 -11 23 -55 44
-52 23 -60 31 -60 54 0 16 -3 38 -6 51 -6 21 -4 22 60 22 68 0 156 18 156 32
0 4 -11 8 -25 8 -14 0 -25 2 -25 5 0 2 22 25 49 50 31 29 51 57 55 78 4 18 9
45 13 62 11 53 125 157 229 209 51 25 97 46 103 46 7 0 28 8 49 19 20 10 55
21 77 23 44 6 130 42 140 59 8 12 27 7 33 -9z m1232 -141 c49 -14 102 -34 120
-46 8 -6 35 -17 59 -25 53 -18 66 -40 24 -40 -24 -1 -25 -2 -10 -11 9 -5 17
-16 17 -22 0 -17 -65 -83 -120 -120 -36 -25 -41 -32 -26 -35 10 -2 23 3 28 12
5 9 18 16 28 16 11 0 20 5 20 10 0 6 6 10 13 10 6 0 23 12 37 27 13 14 37 30
52 35 16 6 28 14 28 19 0 5 11 9 25 9 32 0 32 -10 -2 -42 -31 -28 -139 -108
-147 -108 -3 0 -24 -13 -48 -29 -24 -16 -53 -32 -65 -35 -13 -4 -23 -11 -23
-16 0 -8 -67 -52 -188 -122 -26 -15 -94 -51 -152 -79 -58 -29 -112 -57 -120
-63 -31 -25 -226 -93 -236 -84 -13 14 6 38 29 38 14 0 30 6 36 14 7 8 23 17
36 20 28 7 34 36 8 36 -10 0 -41 -10 -69 -21 -57 -24 -101 -20 -110 9 -3 9
-10 25 -15 34 -5 10 -9 29 -9 43 0 13 -14 40 -31 60 -18 20 -29 38 -26 41 3 3
23 0 44 -7 53 -18 229 -18 270 0 18 8 35 22 38 31 3 9 30 29 61 44 30 16 58
35 61 42 3 8 11 14 19 14 8 0 14 4 14 9 0 5 9 12 19 16 10 3 24 19 31 35 6 16
20 36 29 44 10 9 31 48 46 87 31 77 51 94 99 85 17 -4 40 -7 51 -6 11 0 37 0
58 0 28 0 38 3 34 12 -2 8 -17 12 -34 11 -20 -2 -36 4 -48 17 -10 11 -28 20
-41 20 -31 0 -40 17 -12 23 26 5 47 3 98 -12z m-239 -83 c2 -49 -1 -62 -17
-71 -8 -4 -14 -16 -14 -26 0 -10 -7 -24 -15 -31 -8 -7 -15 -17 -15 -23 0 -15
-101 -108 -112 -105 -5 2 6 19 25 38 65 67 114 151 124 213 7 46 23 49 24 5z
m603 -53 c-6 -16 -34 -21 -34 -7 0 13 11 22 26 22 8 0 11 -6 8 -15z m-1154
-250 c83 -29 191 -29 288 0 16 5 22 3 22 -7 0 -28 -44 -38 -177 -41 -125 -2
-133 -1 -153 21 -11 12 -25 22 -31 22 -6 0 -7 5 -4 10 8 13 5 13 55 -5z m-295
-484 c-14 -12 -112 -47 -170 -61 -27 -6 -95 -14 -150 -17 -89 -6 -99 -5 -87 9
8 11 40 18 100 23 48 4 99 13 114 21 15 8 49 14 77 14 27 0 53 5 56 10 3 6 20
10 38 10 18 0 27 -4 22 -9z"/>
<path d="M6090 6076 c0 -19 39 -86 50 -86 5 0 11 -10 13 -22 3 -13 4 -3 3 22
-1 38 3 46 22 55 33 14 27 25 -14 25 -19 0 -44 5 -55 10 -15 8 -19 7 -19 -4z"/>
<path d="M5922 5927 c-32 -7 -55 -23 -92 -64 -28 -30 -50 -64 -50 -75 0 -15
12 -7 51 36 28 31 57 56 64 56 7 0 15 7 19 15 3 9 18 15 36 15 20 0 30 5 30
15 0 17 2 17 -58 2z"/>
<path d="M6002 5806 c-6 -19 -16 -42 -24 -51 -48 -58 -87 -95 -100 -95 -8 0
-23 -6 -34 -14 -18 -14 -18 -15 -1 -21 27 -11 117 35 123 63 4 12 10 22 14 22
11 0 50 77 50 100 0 34 -19 31 -28 -4z"/>
<path d="M5750 5730 c0 -16 4 -30 9 -30 10 0 22 40 15 52 -11 18 -24 6 -24
-22z"/>
<path d="M5770 5610 c0 -5 9 -10 20 -10 11 0 20 5 20 10 0 6 -9 10 -20 10 -11
0 -20 -4 -20 -10z"/>
<path d="M6077 5544 c-11 -14 -17 -28 -14 -31 7 -6 47 34 47 47 0 17 -14 10
-33 -16z"/>
<path d="M6000 5490 c0 -5 9 -10 20 -10 11 0 20 5 20 10 0 6 -9 10 -20 10 -11
0 -20 -4 -20 -10z"/>
<path d="M6268 5484 c-5 -4 -8 -21 -8 -38 0 -21 3 -27 11 -19 6 6 9 23 7 38
-2 15 -6 23 -10 19z"/>
<path d="M5835 5460 c3 -5 13 -10 21 -10 8 0 14 5 14 10 0 6 -9 10 -21 10 -11
0 -17 -4 -14 -10z"/>
<path d="M5900 5455 c-7 -8 -10 -19 -6 -22 9 -9 38 8 38 22 -1 16 -18 16 -32
0z"/>
<path d="M6227 5386 c-6 -15 1 -26 15 -26 4 0 8 9 8 20 0 23 -15 27 -23 6z"/>
<path d="M5916 4798 c-21 -41 -20 -41 9 -22 14 9 25 25 25 35 0 29 -17 23 -34
-13z"/>
<path d="M5856 4705 c-18 -27 -21 -55 -6 -55 6 0 10 8 10 19 0 10 7 24 15 31
8 7 15 16 15 21 0 17 -18 9 -34 -16z"/>
<path d="M5777 4612 c-15 -15 -27 -35 -27 -44 0 -9 -9 -20 -20 -23 -11 -3 -23
-17 -26 -30 -3 -13 -14 -31 -25 -41 -10 -9 -19 -24 -19 -33 0 -11 9 -6 28 16
87 101 112 133 112 141 0 6 7 12 15 16 8 3 15 10 15 16 0 19 -26 10 -53 -18z"/>
<path d="M4760 4590 c0 -5 3 -10 8 -10 4 0 18 -16 31 -35 13 -19 32 -35 42
-35 9 0 31 -12 47 -27 42 -39 55 -49 90 -67 36 -18 52 -20 52 -6 0 6 -6 10
-12 10 -7 0 -37 23 -66 50 -29 28 -54 50 -57 50 -2 0 -24 14 -48 30 -25 17
-50 30 -56 30 -6 0 -11 5 -11 10 0 6 -4 10 -10 10 -5 0 -10 -4 -10 -10z"/>
<path d="M5606 4384 c-21 -25 -36 -47 -33 -50 9 -9 47 20 47 35 0 8 7 23 17
33 9 10 14 20 12 22 -2 2 -21 -16 -43 -40z"/>
<path d="M5447 4219 c-20 -12 -23 -29 -3 -29 17 0 40 26 29 33 -5 3 -16 1 -26
-4z"/>
<path d="M3080 3686 c0 -8 5 -18 10 -21 6 -3 10 1 10 9 0 8 -4 18 -10 21 -5 3
-10 -1 -10 -9z"/>
<path d="M3200 3230 c0 -5 6 -10 14 -10 8 0 18 5 21 10 3 6 -3 10 -14 10 -12
0 -21 -4 -21 -10z"/>
<path d="M4846 3942 c-7 -11 16 -22 46 -22 11 0 18 5 16 13 -5 15 -54 22 -62
9z"/>
<path d="M4800 3700 c0 -5 7 -10 15 -10 8 0 15 5 15 10 0 6 -7 10 -15 10 -8 0
-15 -4 -15 -10z"/>
<path d="M4740 3665 c-7 -8 -19 -15 -26 -15 -8 0 -14 -4 -14 -10 0 -13 15 -13
38 -1 9 5 25 12 35 15 9 3 17 10 17 16 0 15 -36 12 -50 -5z"/>
<path d="M4615 3599 c-22 -16 -49 -33 -60 -39 -11 -6 -33 -19 -50 -29 -16 -11
-37 -20 -46 -20 -9 -1 -23 -9 -33 -19 -9 -11 -35 -25 -59 -32 -23 -8 -49 -19
-57 -25 -8 -6 -27 -16 -42 -23 -16 -6 -28 -16 -28 -22 0 -16 60 -12 66 5 4 9
19 15 35 15 17 0 32 6 35 15 4 8 14 15 24 15 10 0 23 7 30 15 7 8 21 15 32 15
10 0 21 7 24 15 4 8 13 15 21 15 14 0 71 31 98 52 59 48 75 66 62 71 -7 2 -31
-8 -52 -24z"/>
<path d="M6575 6478 c-50 -27 -73 -100 -40 -128 8 -7 15 -18 15 -25 0 -7 14
-27 30 -45 17 -18 30 -38 30 -45 0 -6 9 -22 20 -35 11 -13 20 -29 20 -37 0 -7
7 -25 16 -38 8 -13 14 -32 12 -43 -2 -10 4 -27 12 -37 8 -10 18 -48 21 -84 4
-36 12 -95 19 -131 22 -116 -3 -365 -51 -519 -47 -147 -104 -263 -206 -419
-38 -57 -37 -82 1 -82 50 0 223 224 313 405 65 129 98 241 121 410 13 90 7
279 -12 350 -4 17 -14 55 -21 85 -7 30 -23 80 -35 110 -12 30 -24 64 -27 75
-3 11 -12 27 -20 35 -15 16 -51 81 -78 142 -12 26 -27 41 -56 52 -46 19 -57
19 -84 4z m73 -110 c18 -18 15 -27 -8 -21 -11 3 -20 12 -20 19 0 17 12 18 28
2z m60 -102 c3 -12 -1 -17 -10 -14 -7 3 -15 13 -16 22 -3 12 1 17 10 14 7 -3
15 -13 16 -22z m22 -74 c0 -21 -2 -24 -10 -12 -13 20 -13 53 0 45 6 -3 10 -18
10 -33z"/>
<path d="M2690 6459 c0 -7 8 -18 18 -25 15 -12 14 -14 -14 -19 -16 -4 -36 -16
-43 -27 -11 -17 -9 -27 8 -62 11 -22 31 -67 45 -98 24 -56 34 -64 76 -58 45 5
50 83 10 157 -11 21 -20 46 -20 56 0 10 -12 34 -27 53 -28 34 -53 45 -53 23z"/>
<path d="M6480 6431 c0 -12 5 -21 10 -21 6 0 10 6 10 14 0 8 -4 18 -10 21 -5
3 -10 -3 -10 -14z"/>
<path d="M2461 6264 c10 -13 10 -17 -2 -25 -8 -5 -21 -7 -30 -5 -17 4 -39 -30
-39 -60 0 -26 56 -74 86 -74 55 0 103 75 76 118 -13 19 -74 62 -90 62 -12 0
-12 -3 -1 -16z"/>
<path d="M4511 6174 c-141 -44 -231 -171 -231 -324 0 -88 31 -160 94 -218 69
-63 125 -85 221 -86 94 0 166 27 227 87 84 83 120 236 81 342 -19 52 -72 134
-86 135 -5 0 -23 11 -41 25 -38 29 -129 55 -184 54 -20 -1 -57 -7 -81 -15z
m-31 -122 c0 -10 -22 -32 -32 -32 -13 0 -9 28 5 33 19 8 27 8 27 -1z m184 -71
c56 -40 79 -85 71 -141 -8 -52 -16 -64 -67 -96 -75 -48 -146 -25 -187 59 -40
82 -21 148 55 197 37 25 77 19 128 -19z"/>
<path d="M2162 5670 c-7 -12 -24 -25 -37 -30 -34 -13 -33 -52 1 -79 15 -12 35
-21 46 -21 27 0 78 54 78 82 0 57 -61 90 -88 48z"/>
<path d="M2309 5431 c-14 -5 -36 -14 -50 -22 -13 -8 -49 -21 -79 -29 -43 -12
-56 -20 -58 -36 -4 -25 37 -61 77 -70 14 -3 47 -12 74 -20 73 -22 87 -10 87
74 0 69 -8 113 -19 111 -3 0 -18 -4 -32 -8z"/>
<path d="M4460 5417 c0 -7 -13 -23 -30 -35 -35 -26 -37 -42 -12 -65 26 -23 55
-21 80 6 29 30 28 71 0 91 -27 19 -38 20 -38 3z"/>
<path d="M4951 5417 c-6 -8 -22 -18 -36 -21 -13 -3 -45 -32 -72 -65 l-49 -59
0 -73 c1 -42 5 -74 11 -74 6 0 11 10 13 23 2 12 7 22 12 22 5 0 17 15 26 33 9
17 45 61 79 97 58 60 91 107 83 115 -13 13 -56 14 -67 2z"/>
<path d="M5119 5410 c-11 -7 -10 -10 4 -16 10 -4 23 -2 28 3 14 14 -13 24 -32
13z"/>
<path d="M2523 5382 c-30 -3 -33 -6 -33 -35 1 -61 32 -79 183 -107 26 -5 75
-22 110 -39 90 -43 99 -44 138 -18 41 27 51 77 22 109 -28 32 -109 68 -150 68
-21 0 -54 4 -73 9 -41 11 -151 18 -197 13z m221 -78 c26 -10 18 -24 -13 -24
-30 0 -46 12 -34 24 8 8 27 8 47 0z"/>
<path d="M3440 5363 c-54 -23 -90 -53 -90 -72 0 -10 9 -30 20 -44 l20 -26 -22
-21 c-44 -41 -100 -32 -128 20 -10 18 -8 20 30 20 28 0 40 4 38 12 -6 18 -68
32 -81 19 -6 -6 -19 -11 -29 -11 -19 0 -42 -35 -33 -50 13 -21 115 -90 133
-90 11 0 31 9 45 20 18 15 40 20 81 20 44 0 56 3 56 16 0 27 -20 54 -41 54
-15 0 -20 5 -17 22 4 31 35 34 57 6 13 -15 18 -32 14 -50 -7 -35 16 -38 51 -7
23 20 24 24 12 48 -7 14 -16 43 -20 63 -4 21 -16 44 -29 53 -25 18 -22 18 -67
-2z"/>
<path d="M3605 5250 c3 -5 13 -10 21 -10 23 0 16 -26 -12 -38 -25 -12 -25 -32
2 -32 8 0 14 -9 14 -19 0 -13 8 -21 22 -23 60 -8 13 -79 -68 -103 -29 -8 -56
-20 -59 -25 -3 -6 -17 -10 -31 -10 -14 0 -22 -4 -19 -10 3 -5 30 -10 58 -10
91 0 145 -52 98 -94 -23 -21 -35 -16 -80 37 -21 23 -42 37 -57 37 -31 0 -30
-19 1 -49 35 -32 34 -109 -1 -80 -9 7 -24 7 -50 0 -28 -8 -43 -7 -65 5 -16 8
-29 19 -29 25 0 6 -10 9 -22 7 -16 -2 -23 3 -28 22 -3 14 -25 38 -48 55 -66
48 -69 95 -7 95 24 0 38 6 45 19 15 28 15 28 -45 57 -32 16 -64 41 -77 61 -25
37 -51 40 -56 6 -2 -14 10 -36 33 -61 32 -36 35 -44 29 -79 -3 -21 -14 -50
-25 -64 -16 -21 -21 -22 -39 -11 -23 14 -25 8 -8 -39 19 -55 43 -68 124 -69
l71 0 -5 -49 c-4 -43 -1 -51 23 -74 52 -47 125 -46 183 5 26 22 38 27 60 21
44 -12 71 -7 112 22 70 49 83 121 33 179 -13 15 -23 37 -23 51 0 21 5 25 28
25 33 0 65 -43 82 -110 16 -59 26 -70 64 -70 23 0 43 10 70 35 37 33 38 37 34
85 -4 42 -11 56 -38 80 -30 27 -84 50 -118 50 -30 0 -62 32 -62 64 -1 51 -53
96 -110 96 -18 0 -29 -4 -25 -10z"/>
<path d="M2064 5145 c-13 -13 -33 -29 -44 -35 -26 -14 -25 -40 0 -68 59 -63
162 18 131 101 -14 35 -53 36 -87 2z"/>
<path d="M2450 5115 c-14 -8 -42 -14 -63 -15 -48 0 -126 -49 -187 -117 -97
-109 -126 -190 -117 -330 11 -187 140 -339 322 -379 114 -25 196 -15 300 38
140 71 225 217 225 388 0 160 -78 289 -222 368 -32 18 -71 32 -87 32 -15 0
-48 7 -71 15 -52 18 -68 18 -100 0z m210 -88 c140 -71 219 -235 190 -394 -7
-37 -17 -73 -21 -79 -5 -6 -20 -32 -33 -57 -33 -60 -54 -81 -130 -122 -59 -33
-68 -35 -159 -35 -84 0 -104 3 -154 27 -72 34 -129 92 -168 169 -40 80 -47
196 -16 278 29 78 63 128 116 173 66 55 122 72 230 70 76 -2 98 -7 145 -30z"/>
<path d="M2410 4984 c-121 -55 -135 -78 -73 -117 22 -14 57 -46 79 -72 22 -27
45 -45 51 -42 6 4 9 55 9 124 -1 131 -4 135 -66 107z"/>
<path d="M2547 4993 c-10 -10 -8 -231 2 -237 5 -3 24 13 42 35 18 23 53 54 77
71 54 37 53 61 -3 90 -85 44 -93 48 -102 48 -5 0 -13 -3 -16 -7z"/>
<path d="M2217 4764 c-4 -4 -7 -40 -7 -81 l0 -73 33 0 c18 0 37 4 43 9 9 10
70 33 134 53 l34 10 -22 19 c-13 10 -40 21 -60 25 -20 4 -48 12 -62 19 -34 17
-84 27 -93 19z"/>
<path d="M2755 4763 c-16 -3 -38 -11 -49 -19 -11 -8 -31 -14 -43 -14 -30 0
-93 -31 -93 -46 0 -6 12 -14 28 -17 54 -11 118 -30 148 -45 54 -26 65 -13 62
70 -3 75 -5 77 -53 71z"/>
<path d="M2382 4543 c-40 -43 -71 -82 -68 -89 7 -18 82 -53 123 -56 l38 -3 0
113 c0 68 -4 112 -10 112 -5 -1 -43 -35 -83 -77z"/>
<path d="M2540 4506 c0 -105 8 -143 25 -116 3 5 15 10 27 10 20 0 69 24 101
49 19 16 23 41 6 41 -7 0 -38 29 -71 65 -33 36 -66 65 -74 65 -11 0 -14 -23
-14 -114z"/>
<path d="M3370 5071 c0 -13 40 -24 71 -19 42 5 26 23 -23 26 -29 2 -48 -1 -48
-7z"/>
<path d="M3330 5002 c0 -40 34 -74 63 -63 33 12 35 49 3 57 -14 3 -30 12 -37
20 -18 22 -29 17 -29 -14z"/>
<path d="M6802 4904 c-12 -8 -20 -19 -17 -24 3 -4 -6 -11 -20 -14 -20 -5 -25
-13 -25 -37 0 -69 90 -100 136 -45 32 37 30 71 -5 107 -34 34 -39 34 -69 13z"/>
<path d="M3098 4691 c-8 -10 -21 -20 -28 -23 -9 -3 -11 -13 -6 -31 5 -22 12
-27 39 -27 52 0 87 56 55 88 -17 17 -41 15 -60 -7z"/>
<path d="M6383 4645 c-3 -9 -18 -22 -33 -30 -17 -9 -38 -34 -51 -62 -99 -212
-115 -239 -174 -296 -33 -32 -88 -74 -122 -93 -72 -40 -78 -47 -58 -64 10 -9
32 -11 68 -6 155 18 246 101 323 296 40 102 93 109 94 12 0 -34 -53 -131 -99
-182 -22 -25 -41 -48 -41 -52 0 -16 49 -7 96 18 27 15 72 38 99 52 28 15 94
69 147 120 78 75 101 92 117 87 46 -14 6 -119 -77 -202 -18 -17 -32 -36 -32
-42 0 -6 21 -11 48 -12 68 0 116 -19 120 -47 5 -33 -17 -36 -125 -16 -112 20
-148 21 -183 5 -58 -27 -124 -67 -127 -77 -2 -7 28 -17 75 -27 93 -18 146 -45
150 -75 4 -25 -23 -41 -41 -23 -6 6 -23 11 -37 11 -14 0 -34 6 -45 14 -11 7
-31 17 -44 21 -25 8 -36 15 -73 49 -23 21 -78 17 -128 -9 -39 -20 -180 -35
-338 -35 -132 0 -132 0 -144 -25 -7 -16 -8 -29 -2 -35 5 -5 66 -14 134 -20
184 -16 296 -47 375 -105 60 -44 89 -40 97 15 4 35 39 33 56 -3 20 -42 78 -93
127 -111 42 -17 45 -16 92 4 29 12 56 32 66 49 21 36 22 100 1 129 -25 36 -34
80 -22 108 13 28 35 30 93 9 22 -8 70 -14 107 -15 61 0 71 3 102 30 19 17 40
47 46 66 25 73 -63 174 -152 174 -42 0 -37 37 12 93 53 60 84 129 76 171 -3
18 -19 47 -34 65 -24 30 -36 35 -84 39 l-55 4 -75 -76 c-77 -79 -119 -108
-174 -120 -40 -9 -50 13 -28 56 24 46 12 94 -33 140 -39 40 -79 50 -90 23z
m10 -737 c48 -23 68 -51 49 -70 -13 -13 -152 50 -152 68 0 31 39 32 103 2z"/>
<path d="M4180 4518 c-53 -33 -103 -58 -116 -58 -6 0 -17 -7 -24 -15 -7 -8
-24 -15 -39 -15 -14 0 -41 -9 -59 -20 l-33 -20 35 -44 c20 -24 36 -47 36 -51
0 -4 9 -23 21 -42 26 -42 47 -31 51 30 3 41 4 42 41 45 33 3 43 -2 78 -36 l39
-40 0 -96 c0 -57 -4 -96 -10 -96 -5 0 -10 13 -10 28 0 17 -10 37 -23 50 -44
41 -187 24 -187 -22 0 -8 -7 -16 -15 -20 -8 -3 -15 -17 -15 -31 0 -29 -16 -34
-24 -7 -9 26 18 84 54 120 36 36 37 42 9 42 -13 0 -41 -20 -69 -50 -41 -43
-49 -48 -60 -35 -20 24 -30 8 -30 -46 0 -80 37 -137 120 -184 27 -15 54 -20
115 -19 70 0 85 3 122 27 95 61 126 124 117 236 l-7 77 37 27 c46 36 47 64 2
122 -18 25 -46 71 -62 104 -16 33 -36 60 -44 61 -8 0 -31 -10 -50 -22z m37
-120 c48 -53 67 -129 28 -114 -29 11 -155 98 -155 107 0 13 39 28 76 28 19 1
38 -7 51 -21z m-217 -358 c0 -16 -4 -30 -10 -30 -11 0 -14 43 -3 53 11 12 13
8 13 -23z"/>
<path d="M2150 4160 l25 -19 -19 -35 c-12 -23 -30 -39 -51 -46 -64 -21 -109
-97 -83 -142 66 -112 203 -127 287 -31 64 72 60 158 -9 224 -46 44 -98 69
-142 69 l-33 0 25 -20z m100 -141 c0 -17 -11 -40 -29 -59 -26 -29 -31 -31 -52
-19 -13 7 -31 15 -39 19 -25 12 -24 39 3 49 14 6 28 15 32 21 10 16 46 28 67
22 12 -3 18 -14 18 -33z"/>
<path d="M5686 3729 c-27 -27 -55 -49 -62 -49 -18 0 -18 0 5 -54 21 -48 82
-96 122 -96 29 0 83 34 103 65 9 13 16 45 16 69 0 36 -6 52 -31 81 -25 29 -38
35 -68 34 -29 -1 -45 -10 -85 -50z"/>
<path d="M6112 3662 c-25 -23 -32 -37 -32 -66 0 -74 -38 -116 -169 -182 -97
-49 -131 -56 -290 -61 -135 -4 -241 8 -381 43 -111 28 -194 12 -219 -44 -19
-40 -4 -61 85 -118 47 -30 92 -64 102 -76 9 -11 60 -53 112 -92 137 -102 308
-183 550 -261 114 -37 268 -75 301 -75 24 0 32 28 15 52 -19 27 -10 47 17 40
12 -2 27 -8 32 -13 25 -19 192 -59 246 -59 60 0 127 20 141 43 23 37 -15 78
-75 82 -56 3 -75 14 -82 45 -12 53 -41 80 -89 80 -44 0 -54 -6 -123 -70 -25
-23 -42 -30 -73 -30 l-40 0 0 44 c0 28 -7 52 -18 66 -27 34 -64 20 -130 -47
l-54 -56 -52 12 c-61 15 -308 97 -353 117 -17 8 -35 14 -40 14 -30 0 -92 42
-101 69 -8 22 -18 30 -39 33 -25 3 -28 6 -25 37 1 20 -3 38 -10 43 -10 6 -10
8 1 8 18 0 71 -49 71 -66 0 -49 212 -84 410 -66 96 8 129 16 198 46 129 55
200 118 260 228 26 48 32 71 32 119 0 85 -30 134 -107 173 -40 20 -34 21 -71
-12z m28 -106 c0 -19 -7 -39 -15 -46 -8 -7 -15 -18 -15 -24 0 -15 -115 -124
-143 -136 -12 -6 -29 -14 -37 -18 -57 -32 -87 -42 -125 -42 -23 0 -59 -7 -78
-15 -42 -17 -168 -19 -237 -4 -25 6 -74 13 -109 17 -37 4 -66 12 -69 20 -5 15
107 17 158 1 112 -34 376 19 496 101 33 22 70 58 88 87 17 26 33 50 37 53 3 3
11 15 18 28 16 30 31 19 31 -22z m-872 -212 c34 -9 26 -24 -12 -24 -36 0 -56
14 -34 23 18 7 20 7 46 1z m1118 -448 c32 -24 6 -40 -45 -26 -43 11 -53 25
-23 33 32 9 48 7 68 -7z m-265 -16 c21 -17 22 -21 9 -30 -9 -6 -36 -8 -65 -4
-89 11 -102 54 -16 54 34 0 56 -6 72 -20z"/>
<path d="M6762 3674 c-27 -18 -28 -45 -4 -67 24 -21 68 -22 76 -1 25 64 -19
105 -72 68z"/>
<path d="M2053 3659 c-13 -4 -23 -12 -23 -17 0 -5 -18 -22 -40 -37 -48 -33
-53 -69 -17 -111 18 -21 32 -27 64 -27 44 0 70 20 98 73 15 29 15 34 -2 67
-24 47 -51 64 -80 52z"/>
<path d="M2266 3638 c-9 -17 -16 -40 -16 -50 0 -11 -5 -29 -12 -41 -6 -12 -16
-44 -20 -72 -12 -67 -9 -342 4 -374 5 -14 13 -46 18 -71 22 -119 74 -204 192
-315 97 -91 154 -127 168 -105 11 18 2 38 -39 86 -31 36 -141 236 -141 257 0
13 56 7 89 -9 17 -9 38 -13 46 -10 30 11 14 43 -44 88 -60 47 -94 87 -127 148
-10 19 -24 42 -30 50 -6 8 -14 26 -17 40 -3 14 -12 43 -20 65 -9 22 -12 47 -7
55 4 8 4 24 -1 35 -14 36 -10 168 6 199 19 35 13 56 -14 56 -12 0 -26 -12 -35
-32z"/>
<path d="M5383 3638 c-36 -38 -39 -79 -10 -113 18 -22 33 -29 61 -29 48 0 76
30 76 82 0 46 -20 67 -70 77 -29 5 -39 2 -57 -17z m57 -32 c0 -14 -29 -31 -38
-22 -2 3 -2 12 1 21 8 19 37 20 37 1z"/>
<path d="M6590 3484 c-19 -7 -44 -13 -56 -13 -26 -1 -105 -69 -133 -114 -11
-18 -23 -56 -27 -84 -8 -66 20 -128 82 -181 78 -65 162 -79 241 -41 151 73
190 250 82 373 -30 34 -53 49 -92 61 -28 8 -53 14 -56 14 -3 -1 -22 -7 -41
-15z m70 -94 c97 -50 113 -175 30 -241 -53 -43 -87 -46 -138 -11 -59 39 -82
77 -82 134 0 53 33 101 85 124 41 18 60 17 105 -6z"/>
<path d="M6565 3300 c-36 -40 9 -95 57 -69 11 6 18 21 18 37 0 51 -42 69 -75
32z"/>
<path d="M1976 3270 c-41 -45 -44 -60 -18 -83 59 -54 145 20 107 93 -21 41
-45 38 -89 -10z"/>
<path d="M4744 3206 c-44 -9 -59 -20 -100 -66 -27 -30 -52 -56 -56 -58 -16 -7
-7 -60 13 -86 15 -20 29 -26 48 -24 24 3 26 7 26 52 0 41 4 52 27 69 24 18 30
18 57 7 95 -39 133 -180 69 -259 -27 -34 -87 -67 -140 -76 -38 -7 -138 12
-138 26 0 4 -10 11 -21 14 -22 7 -68 53 -69 68 0 5 -11 23 -24 40 -13 18 -31
49 -40 71 -16 38 -17 39 -61 34 -25 -3 -56 -13 -70 -22 l-25 -16 21 -53 c11
-28 27 -59 35 -68 8 -8 14 -21 14 -27 0 -6 12 -26 28 -44 15 -18 32 -42 38
-53 14 -26 102 -87 179 -124 53 -25 69 -28 138 -26 133 5 250 76 323 197 31
50 37 70 41 136 5 69 3 84 -20 132 -27 59 -66 107 -107 132 -20 12 -125 41
-133 37 -1 -1 -25 -6 -53 -13z m196 -298 c0 -30 -8 -50 -30 -78 -16 -21 -30
-45 -30 -54 0 -9 -7 -16 -15 -16 -12 0 -9 12 15 55 17 30 33 75 36 100 8 54
24 50 24 -7z m-420 -188 c0 -11 -4 -20 -9 -20 -14 0 -23 18 -16 30 10 17 25
11 25 -10z m280 -10 c0 -12 -35 -31 -43 -24 -3 3 -3 12 0 20 6 16 43 19 43 4z
m-171 -19 c11 -7 10 -11 -6 -20 -22 -11 -33 -6 -33 16 0 15 18 17 39 4z"/>
<path d="M3960 2919 c-81 -48 -94 -116 -41 -215 23 -43 44 -67 79 -89 43 -27
55 -30 132 -30 94 0 143 17 148 51 2 15 -8 25 -40 42 -84 42 -147 115 -177
204 -21 62 -45 71 -101 37z m50 -93 c0 -20 -25 -66 -36 -66 -17 0 -18 24 -2
50 11 17 38 29 38 16z"/>
<path d="M2690 2870 c0 -5 -13 -22 -30 -37 -16 -14 -30 -34 -30 -43 0 -24 32
-50 61 -50 37 0 59 21 65 61 5 29 2 41 -15 58 -22 22 -51 28 -51 11z"/>
<path d="M3645 2831 c-3 -6 -18 -16 -33 -24 -127 -67 -168 -90 -174 -100 -8
-13 -304 -10 -363 3 -56 13 -172 12 -198 -1 -31 -16 -77 -60 -77 -74 0 -7 -8
-19 -18 -28 -16 -15 -20 -53 -14 -148 3 -38 66 -116 115 -140 23 -12 68 -24
102 -26 50 -4 68 -1 105 19 59 32 110 99 110 143 0 68 34 107 66 75 5 -5 35
-12 66 -16 50 -6 64 -3 115 22 66 32 137 94 179 157 16 23 41 57 56 75 38 44
37 72 -1 72 -17 0 -32 -4 -36 -9z m-605 -231 c35 -27 80 -93 80 -118 0 -7 -19
-31 -42 -52 -36 -35 -47 -40 -88 -40 -40 0 -50 5 -82 38 -44 46 -50 64 -42
116 4 31 14 48 41 68 42 33 80 29 133 -12z"/>
<path d="M5245 2810 c-8 -27 1 -40 30 -40 39 0 135 -28 260 -75 65 -25 122
-45 127 -45 19 0 198 -89 198 -99 0 -16 -42 -13 -64 4 -11 8 -27 15 -37 15 -9
0 -30 7 -45 15 -16 8 -41 15 -56 15 -15 0 -30 5 -33 10 -3 6 -18 10 -33 10
l-27 0 30 -24 c17 -14 46 -27 65 -31 19 -4 49 -14 65 -22 17 -9 37 -19 44 -23
8 -3 24 -19 35 -34 l21 -28 -50 -44 c-63 -55 -104 -68 -231 -68 -94 -1 -103 1
-142 27 -23 15 -42 34 -42 42 0 20 -47 95 -60 95 -6 0 -10 4 -10 10 0 6 9 6
24 -1 19 -9 30 -7 65 15 37 24 41 30 41 66 0 37 12 52 24 31 10 -15 87 -24 99
-12 16 16 -10 41 -43 41 -15 0 -33 7 -40 15 -7 8 -25 15 -40 15 -15 0 -33 7
-40 15 -7 8 -22 15 -35 15 -12 0 -32 9 -45 20 -33 29 -90 24 -90 -7 0 -8 -18
-51 -40 -95 -22 -43 -37 -85 -33 -91 14 -25 111 -143 134 -164 36 -33 138 -79
194 -89 96 -16 242 -5 275 20 8 6 32 20 53 31 52 26 120 103 153 173 32 67 27
79 -41 99 -28 8 -84 26 -125 39 -41 14 -104 34 -140 46 -36 11 -91 31 -122 44
-31 12 -73 26 -92 30 -20 3 -39 10 -42 15 -3 5 -15 9 -28 9 -12 0 -31 7 -42
15 -28 21 -61 19 -69 -5z m126 -171 c34 -24 37 -54 9 -71 -11 -7 -20 -18 -20
-25 0 -18 -6 -16 -40 9 -37 27 -40 70 -8 92 28 20 24 20 59 -5z"/>
<path d="M5542 2571 c-8 -5 -12 -21 -10 -37 2 -24 8 -29 35 -32 28 -3 33 1 39
22 3 14 4 33 0 41 -6 16 -43 20 -64 6z"/>
<path d="M6048 2564 c-2 -5 -10 -29 -17 -54 -22 -73 -42 -107 -108 -173 -97
-99 -166 -127 -311 -127 -115 0 -195 20 -252 61 -37 28 -64 22 -68 -14 -4 -33
13 -57 39 -57 11 0 27 -4 37 -9 64 -32 141 -46 263 -45 74 0 133 5 141 11 7 6
24 14 37 18 34 10 120 63 155 94 83 76 184 246 162 275 -13 18 -71 32 -78 20z"/>
<path d="M6320 2555 c-7 -9 -19 -14 -25 -11 -14 5 -35 -35 -35 -68 0 -27 32
-64 64 -72 32 -8 62 10 81 46 19 37 11 74 -22 100 -31 24 -46 25 -63 5z m14
-49 c-6 -15 -34 -23 -34 -10 0 8 34 34 38 30 1 -2 0 -11 -4 -20z"/>
<path d="M3924 2511 c4 -6 -5 -20 -19 -33 -32 -27 -32 -53 -1 -74 22 -13 29
-14 53 -2 22 10 29 21 31 49 3 38 -7 52 -47 64 -16 5 -21 4 -17 -4z"/>
<path d="M5439 2489 c-22 -42 26 -90 59 -57 17 17 15 42 -6 61 -25 23 -39 21
-53 -4z"/>
<path d="M5684 2476 c-12 -32 0 -61 28 -64 22 -3 30 2 38 22 5 14 7 33 4 41
-8 19 -63 20 -70 1z"/>
<path d="M4335 2441 c-8 -13 38 -61 59 -61 7 0 30 -15 50 -33 38 -32 38 -33
44 -125 4 -82 2 -97 -15 -120 -11 -15 -22 -34 -26 -44 -9 -25 -129 -30 -183
-6 -49 21 -96 76 -112 134 -7 23 -19 47 -27 54 -21 17 -30 -9 -30 -85 1 -101
68 -178 177 -206 56 -13 127 -5 160 19 13 9 39 25 58 36 54 29 105 91 124 151
16 51 16 58 0 111 -20 69 -92 147 -152 164 -66 19 -119 23 -127 11z"/>
<path d="M3665 2424 c-80 -17 -130 -42 -182 -93 -49 -48 -54 -57 -49 -85 15
-77 66 -128 107 -106 23 13 23 19 4 44 -8 11 -15 38 -15 61 0 57 42 89 116 89
45 0 58 -5 98 -38 74 -60 101 -147 72 -232 -25 -73 -21 -118 10 -134 57 -31
87 26 92 168 4 99 2 107 -26 165 -34 69 -77 114 -137 146 -39 21 -51 23 -90
15z"/>
<path d="M4871 2381 c-13 -8 -13 -12 -1 -26 12 -15 12 -19 -3 -30 -36 -26 -11
-55 27 -30 45 30 38 -3 -11 -50 -39 -37 -53 -44 -75 -39 -14 3 -29 1 -32 -4
-9 -16 43 -145 72 -175 103 -109 248 -115 311 -13 29 46 26 95 -9 169 -39 83
-85 129 -170 172 -74 37 -86 40 -109 26z m160 -152 c16 -17 29 -34 29 -37 0
-3 -21 -27 -47 -54 -27 -26 -56 -57 -65 -68 -23 -26 -34 -25 -41 1 -4 14 -11
20 -21 16 -11 -4 -18 2 -22 20 -10 38 26 94 86 135 35 24 48 22 81 -13z m49
-119 c0 -19 -52 -90 -66 -90 -22 0 -17 51 8 77 22 23 58 31 58 13z"/>
<path d="M4115 2291 c-6 -11 9 -23 19 -14 9 9 7 23 -3 23 -6 0 -12 -4 -16 -9z"/>
<path d="M3181 2201 c-12 -12 -21 -25 -21 -30 0 -5 -9 -11 -20 -14 -26 -7 -25
-26 3 -68 21 -31 27 -34 72 -34 45 0 51 3 72 34 51 75 -44 174 -106 112z"/>
<path d="M3622 2197 c-38 -40 -23 -87 26 -87 44 0 62 18 62 59 0 32 -4 40 -22
45 -36 9 -43 7 -66 -17z"/>
<path d="M4340 2070 c0 -5 7 -10 15 -10 8 0 15 5 15 10 0 6 -7 10 -15 10 -8 0
-15 -4 -15 -10z"/>
<path d="M3601 2031 c-17 -31 -13 -57 12 -73 43 -29 98 27 70 71 -16 25 -69
26 -82 2z"/>
</g>
</svg>
